<svg xmlns="http://www.w3.org/2000/svg" viewBox="0 0 400 350" width="100%" height="100%">
    <defs>
        <linearGradient id="tvGrad" x1="0%" y1="0%" x2="0%" y2="100%">
            <stop offset="0%" stop-color="#FF1493" stop-opacity="0.95"/> <stop offset="100%" stop-color="#DB2777"/> </linearGradient>
    </defs>

    <rect x="50" y="70" width="300" height="200" rx="35" ry="35" fill="url(#tvGrad)" stroke="#1F2937" stroke-width="4"/>

    <rect x="75" y="90" width="250" height="150" rx="20" ry="20" fill="#111827"/>

    <g transform="translate(145, 10)">
        <path d="M 0 60 A 60 60 0 0 1 110 60" fill="none" stroke="#DB2777" stroke-width="10" stroke-linecap="round"/>
        <path d="M 15 60 A 45 45 0 0 1 95 60" fill="none" stroke="#DB2777" stroke-width="10" stroke-linecap="round"/>
    </g>

    <text x="200" y="165" text-anchor="middle" dominant-baseline="middle" font-family="Arial, Helvetica, sans-serif" font-weight="900" font-size="48">
        <tspan fill="#F9FAFB">echo</tspan><tspan fill="#EC4899">Plus</tspan>
    </text>

    <g transform="translate(170, 185) scale(1.1)">
        <circle cx="28" cy="28" r="28" fill="none" stroke="#E5E7EB" stroke-width="6"/>
        <path d="M 22 18 L 40 28 L 22 38 Z" fill="#F9FAFB"/>
        <path d="M 52 15 A 15 15 0 0 1 52 41" fill="none" stroke="#EC4899" stroke-width="5" stroke-linecap="round"/>
    </g>

    <circle cx="95" cy="245" r="8" fill="#F9FAFB"/>
    <circle cx="120" cy="245" r="8" fill="#F9FAFB"/>
</svg>
